<svg xmlns="http://www.w3.org/2000/svg" viewBox="0 0 100 90" fill="none">
  <!-- Heart outline -->
  <path d="M50 88 C25 65, 2 45, 2 28 C2 14, 14 2, 28 2 C37 2, 45 7, 50 15 C55 7, 63 2, 72 2 C86 2, 98 14, 98 28 C98 45, 75 65, 50 88Z" stroke="#556B4E" stroke-width="4" fill="none"/>
  <!-- Stem -->
  <line x1="50" y1="35" x2="50" y2="70" stroke="#556B4E" stroke-width="3.5" stroke-linecap="round"/>
  <!-- Leaf drop at top -->
  <path d="M50 30 C47 35, 47 40, 50 42 C53 40, 53 35, 50 30Z" stroke="#556B4E" stroke-width="2.5" fill="none" stroke-linejoin="round"/>
  <!-- Left leaf -->
  <path d="M50 65 C40 60, 30 55, 28 50" stroke="#556B4E" stroke-width="3" fill="none" stroke-linecap="round"/>
  <!-- Right leaf -->
  <path d="M50 65 C60 60, 70 55, 72 50" stroke="#556B4E" stroke-width="3" fill="none" stroke-linecap="round"/>
</svg>
